<?xml version="1.0" encoding="utf-8"?>
<!DOCTYPE svg PUBLIC "-//W3C//DTD SVG 1.0//EN" "http://www.w3.org/TR/2001/REC-SVG-20010904/DTD/svg10.dtd">
<svg version="1.0" xmlns="http://www.w3.org/2000/svg" width="200px" height="200px" viewBox="0 0 200 200" preserveAspectRatio="xMidYMid meet">
 <g fill="#9ae2ff">
  <path d="M0 100 l0 -100 100 0 100 0 0 100 0 100 -100 0 -100 0 0 -100z m164 21.05 l1.75 -1.55 -2 -1.60 c-1.10 -0.90 -8.05 -6.60 -15.50 -12.65 -7.40 -6.10 -21.20 -17.40 -30.65 -25.15 -9.45 -7.75 -17.30 -14.10 -17.55 -14.10 -0.20 0 -2.50 1.75 -5.10 3.90 -5.85 4.85 -21.80 17.85 -29.45 24.05 -3.15 2.60 -11.45 9.30 -18.40 14.90 -6.90 5.65 -12.60 10.40 -12.60 10.65 0 0.45 6.15 5.50 6.70 5.50 0.20 0 5.05 -3.15 10.80 -7 l10.50 -7 2.90 0 2.95 0 7.20 5.40 7.20 5.45 2.40 -1.95 c3.75 -2.90 5.10 -2.70 10.40 1.55 l4.30 3.45 4.30 -3.45 c5.25 -4.20 6.80 -4.45 10.30 -1.70 1.20 0.95 2.35 1.75 2.55 1.75 0.20 0 3.70 -2.35 7.75 -5.25 7.15 -5.10 7.45 -5.25 10.05 -5.25 2.60 0 2.95 0.20 12.05 6.35 5.15 3.45 9.95 6.75 10.60 7.25 1.15 0.85 1.20 0.85 3 -0.55 1 -0.80 2.60 -2.15 3.55 -3z"/>
 </g>
 <g fill="#2e3e44">
  <path d="M35.90 123.85 c-2.65 -2.25 -4.85 -4.20 -4.85 -4.40 -0.05 -0.15 6.10 -5.20 13.60 -11.30 7.45 -6.05 15.65 -12.65 18.10 -14.65 2.50 -2.05 7.45 -6.05 11 -8.95 3.60 -2.90 10.40 -8.50 15.20 -12.45 4.80 -3.95 9.25 -7.40 9.90 -7.65 0.80 -0.30 1.65 -0.25 2.65 0.20 0.80 0.30 11.30 8.70 23.35 18.65 12.05 9.90 26.85 22.05 32.90 26.95 6.05 4.90 11 9.05 11 9.25 0 0.80 -9.85 8.50 -10.40 8.15 -0.35 -0.15 -1.95 -1.25 -3.60 -2.40 -11.20 -7.80 -18.95 -12.75 -19.95 -12.75 -0.70 0 -4.55 2.40 -9.55 5.95 l-8.40 6 -2.80 -2.30 c-1.55 -1.25 -3.05 -2.40 -3.40 -2.50 -0.35 -0.15 -2.90 1.60 -5.70 3.90 -3.50 2.85 -5.30 3.95 -5.70 3.65 -0.35 -0.25 -2.60 -2.10 -5.05 -4.05 -2.45 -2 -4.60 -3.65 -4.75 -3.65 -0.20 0 -1.75 1.10 -3.50 2.45 -1.75 1.35 -3.35 2.35 -3.55 2.25 -0.20 -0.10 -3.75 -2.80 -7.95 -5.95 -5.60 -4.25 -7.95 -5.75 -9 -5.75 -1.05 0 -4.70 2.20 -12.85 7.65 -6.25 4.15 -11.45 7.65 -11.60 7.70 -0.15 0.05 -2.45 -1.75 -5.10 -4z"/>
 </g>
</svg>