<?xml version="1.0" standalone="no"?>
<!DOCTYPE svg PUBLIC "-//W3C//DTD SVG 20010904//EN"
 "http://www.w3.org/TR/2001/REC-SVG-20010904/DTD/svg10.dtd">
<svg version="1.0" xmlns="http://www.w3.org/2000/svg"
 width="200.000000pt" height="200.000000pt" viewBox="0 0 200.000000 200.000000"
 preserveAspectRatio="xMidYMid meet">

<g transform="translate(0.000000,200.000000) scale(0.100000,-0.100000)"
fill="#000000" stroke="none">
<path d="M913 1297 c-382 -309 -571 -462 -586 -476 -17 -16 -15 -19 32 -59
l50 -42 108 74 c102 70 122 80 149 77 7 0 44 -26 83 -56 39 -30 75 -55 79 -55
4 0 20 11 37 24 l30 24 46 -39 c26 -21 51 -39 57 -39 5 0 31 17 58 39 l48 39
33 -25 c36 -28 30 -29 124 39 37 26 76 48 88 48 11 0 70 -34 131 -76 l110 -75
50 42 c40 34 48 45 38 54 -27 25 -624 511 -648 528 -13 9 -28 17 -32 17 -4 0
-42 -28 -85 -63z"/>
</g>
</svg>
