<?xml version="1.0" encoding="UTF-8" standalone="no"?>
<svg
   version="1.0"
   width="138.68884pt"
   height="66.634834pt"
   viewBox="0 0 138.68884 66.634834"
   preserveAspectRatio="xMidYMid"
   id="svg1"
   sodipodi:docname="B2_Logo_Black - copia.svg"
   inkscape:version="1.3.2 (091e20e, 2023-11-25, custom)"
   xmlns:inkscape="http://www.inkscape.org/namespaces/inkscape"
   xmlns:sodipodi="http://sodipodi.sourceforge.net/DTD/sodipodi-0.dtd"
   xmlns="http://www.w3.org/2000/svg"
   xmlns:svg="http://www.w3.org/2000/svg">
  <defs
     id="defs1" />
  <sodipodi:namedview
     id="namedview1"
     pagecolor="#ffffff"
     bordercolor="#000000"
     borderopacity="0.25"
     inkscape:showpageshadow="2"
     inkscape:pageopacity="0.0"
     inkscape:pagecheckerboard="0"
     inkscape:deskcolor="#d1d1d1"
     inkscape:document-units="pt"
     inkscape:zoom="3.04875"
     inkscape:cx="133.66134"
     inkscape:cy="133.33333"
     inkscape:window-width="1920"
     inkscape:window-height="1009"
     inkscape:window-x="-8"
     inkscape:window-y="-8"
     inkscape:window-maximized="1"
     inkscape:current-layer="svg1" />
  <g
     transform="matrix(0.1,0,0,-0.1,-30.626862,137.125)"
     fill="#000000"
     stroke="none"
     id="g1"
     style="fill:#4d4d4d;stroke:#000000;stroke-opacity:1">
    <path
       d="M 913,1297 C 531,988 342,835 327,821 310,805 312,802 359,762 l 50,-42 108,74 c 102,70 122,80 149,77 7,0 44,-26 83,-56 39,-30 75,-55 79,-55 4,0 20,11 37,24 l 30,24 46,-39 c 26,-21 51,-39 57,-39 5,0 31,17 58,39 l 48,39 33,-25 c 36,-28 30,-29 124,39 37,26 76,48 88,48 11,0 70,-34 131,-76 l 110,-75 50,42 c 40,34 48,45 38,54 -27,25 -624,511 -648,528 -13,9 -28,17 -32,17 -4,0 -42,-28 -85,-63 z"
       id="path1"
       style="fill:none;stroke:#00e5ff;stroke-width:22.5;stroke-dasharray:none;stroke-opacity:1" />
  </g>
</svg>
